PathFileType	4	(X/Y/Z)	Patient4_TMGait_0pt6_02_left_46.trc.trc
DataRate	CameraRate	NumFrames	NumMarkers	Units	OrigDataRate	OrigDataStartFrame	OrigNumFrames
84.337349397591	84.337349397591	4	33	mm	84.337349397591	53	       141
Frame#	Time	Sacral			L.Shoulder			Chest			R.Shoulder			Neck			R.ASIS			L.ASIS			R.Thigh.Superior			R.Thigh.Lateral			R.Thigh.Inferior			R.Patella			L.Thigh.Superior			L.Thigh.Lateral			L.Thigh.Inferior			L.Patella			L.Shank.Superior			L.Shank.Lateral			L.Shank.Inferior			R.Shank.Superior			R.Shank.Lateral			R.Shank.Inferior			R.Heel			R.Midfoot.Superior			R.Midfoot.Lateral			R.Toe			L.Heel			L.Midfoot.Lateral			L.Midfoot.Superior			L.Toe			L.Elbow			L.Wrist			R.Elbow			R.Wrist			
		X1	Y1	Z1	X2	Y2	Z2	X3	Y3	Z3	X4	Y4	Z4	X5	Y5	Z5	X6	Y6	Z6	X7	Y7	Z7	X8	Y8	Z8	X9	Y9	Z9	X10	Y10	Z10	X11	Y11	Z11	X12	Y12	Z12	X13	Y13	Z13	X14	Y14	Z14	X15	Y15	Z15	X16	Y16	Z16	X17	Y17	Z17	X18	Y18	Z18	X19	Y19	Z19	X20	Y20	Z20	X21	Y21	Z21	X22	Y22	Z22	X23	Y23	Z23	X24	Y24	Z24	X25	Y25	Z25	X26	Y26	Z26	X27	Y27	Z27	X28	Y28	Z28	X29	Y29	Z29	X30	Y30	Z30	X31	Y31	Z31	X32	Y32	Z32	X33	Y33	Z33	

53	56.756571428571	826.569215572623	1010.386768142811	460.112319916037	1008.354945741030	1429.393937715377	267.930833619047	1110.661138012300	1363.279592311703	430.242694871508	1029.227633014253	1444.098716463370	601.325294429267	1005.231460605718	1496.158817970925	418.080024847151	1053.813576834298	942.569896781883	572.386810722223	1038.622438899958	966.485415709186	299.423410094451	1141.654016680936	780.132104196910	541.571711210657	1108.374673439542	656.904268256127	616.790433164303	1201.008970078717	622.491898766519	537.688864547388	1223.108460271317	505.544702981034	557.824780269599	1083.585508311241	755.289141402806	323.223750875530	990.560780465137	642.148265985131	266.080233020353	1074.430494909757	563.451183251407	326.824303662071	1072.897527703559	496.123221717263	336.499016612286	1052.671933907518	424.656498884059	328.949604294579	968.769456719282	302.719859974991	287.265017697213	1035.144401107899	198.306356581957	357.133052720717	1141.859394855606	432.998753588960	562.643477893666	1018.099193594191	401.750905798414	623.196007282205	993.995327186901	296.933975593828	571.467398399343	787.626744299508	248.498509741622	543.272292173238	954.204749164381	184.075186015068	585.055705891949	845.215110592524	190.514036189549	618.618592955452	1012.861268594667	70.201067879796	615.396913323843	922.180961549166	37.538418614612	411.055340227279	992.747419649822	34.675334755946	326.670647933004	1074.388686115841	99.253661059264	348.639589999048	1203.218315106892	52.133855176795	318.376961939114	1057.767659454663	1088.039960026161	129.836813902597	1176.174000105135	855.344375972655	149.402317347255	986.811164247720	1101.920572687622	728.216107786839	1187.073966386332	943.966339405658	687.400057251311	
54	56.768428571429	825.042105491864	1010.907373197156	459.177947654444	1009.340770285566	1429.975884828528	267.965470511686	1110.435239543281	1363.352180877118	430.778452654768	1028.230711153267	1444.041759002699	601.528077778838	1005.723580438975	1496.460939968691	418.199079167776	1052.455493438218	943.659860837585	572.163050510214	1037.886059472356	966.788743448525	299.052030670227	1142.890152682915	784.733620939939	540.135511310517	1113.423678382499	661.117947588286	616.055687031392	1205.928532676296	628.510631709626	535.980545026355	1231.207465197196	512.178231059466	556.160098025142	1081.019220551165	754.628871718934	323.507357754053	987.053327196461	642.256364778028	266.066942493592	1069.772550146542	562.791090215101	327.274416638852	1067.530673155734	495.601575545494	337.093900876740	1047.175079035858	424.401860862514	329.404778537692	962.977062490245	302.806013586165	287.371037478428	1028.596129396076	198.130193017855	357.489241316876	1151.892870593647	437.757029369653	562.130690779943	1029.922898053573	403.156511305637	624.339681885300	1008.053324566397	297.592715757692	572.987057345488	802.881998310252	243.453521894343	547.694203253091	971.664239246582	183.554380236577	587.216915818715	862.965072770592	186.724876125221	622.053190981062	1033.663839022147	71.097346302626	616.039797332543	914.962130501016	37.517610128390	411.093654951865	985.566132909910	34.690794498918	326.710957614219	1067.234159783969	99.132041139453	348.781112244610	1196.040526172583	52.034075027625	318.395646973017	1067.582640177224	1091.529765135143	127.990814948236	1195.682373693767	864.073707057529	148.701457211531	977.382642047535	1102.266230196150	727.393321356637	1163.549830515743	924.961191556276	695.247032973204	
55	56.780285714286	823.668788423988	1011.337523688828	458.364292034716	1010.418750831891	1430.541442589367	268.130286940940	1110.304018098872	1363.359296253590	431.411166836889	1027.329861848139	1443.879731426762	601.842000861379	1006.293409558384	1496.710162788820	418.458049059270	1051.188801226459	944.678801065761	572.062601614492	1037.269551475010	967.000953019587	298.764310288771	1143.881013571491	789.021247575963	538.805656330616	1118.003326997372	665.150515027762	615.387782642128	1210.195209177344	634.150507577749	534.270452424245	1238.531156673701	518.632805779734	554.521469439056	1078.566546682953	753.924799626798	324.003030929858	983.758973052857	642.307783064114	266.129005199093	1065.267654034143	562.104726882326	327.870075583716	1062.323733150873	495.053394052603	337.804854882663	1041.828126996692	424.105454776254	329.965989690606	957.352396287552	302.869333775655	287.478993185088	1022.116998003461	197.918294403373	357.910561989297	1161.420017002677	442.284200263647	561.688234068667	1041.474634372821	403.998117158387	625.569031838556	1022.255794232961	297.623184569017	574.632510797396	818.641845997933	237.099905994579	552.268152888907	989.703024937787	182.334959033682	589.519547617925	881.373176049674	181.964075121346	625.687236693530	1055.395272982332	71.596624262168	616.951755049116	907.742793801949	37.491303513373	411.144996981637	978.387363951433	34.709260345524	326.764995954789	1060.093153434951	98.982767473544	348.954604526770	1188.870017770616	51.906167916796	318.428127274383	1076.632719525562	1095.224510104846	126.215290258587	1214.647180278867	873.732210081522	148.549617285534	968.751060343635	1102.650711542887	726.685237046452	1138.692206581627	907.592787509853	703.093426354106	
56	56.792142857143	822.481386784058	1011.669082394221	457.668173227710	1011.590649031570	1431.057353046972	268.418183659124	1110.276771041722	1363.286620738587	432.138492621704	1026.541553220977	1443.605883387019	602.263030270984	1006.938657136920	1496.895105360049	418.846156325969	1050.011664588689	945.580762309887	572.071008298101	1036.783969932304	967.124881011532	298.566013754979	1144.634599070114	792.932709436534	537.596294749822	1122.088091766787	668.936537180237	614.826987800235	1213.814257250418	639.334424623452	532.625133419348	1245.062774501342	524.818635487234	552.990871366577	1076.262909881887	753.179610433185	324.664983597909	980.681840300552	642.303359234830	266.242176701102	1060.924421589245	561.386707185471	328.567314067254	1057.290336680140	494.481219937359	338.586752397395	1036.635908276684	423.763500703833	330.597138336929	951.892315137623	302.905528434200	287.568067650009	1015.708020466018	197.669982175104	358.376758924840	1170.403629440709	446.525383824727	561.365181671713	1052.691744959230	404.296022826144	626.858075675090	1036.533299609832	297.090723201481	576.370318123474	834.889906218667	229.604937319377	556.816984997472	1008.198550270750	180.546796840158	591.906369563702	900.332662387001	176.430386137037	629.408367423979	1077.853467876590	71.873441100412	618.177154916943	900.526659231555	37.459213343208	411.204383400867	971.211239868680	34.728866630035	326.828765351003	1052.967295463632	98.811232156261	349.153249513373	1181.707231263069	51.755406988099	318.472377351617	1084.908117840401	1099.024773364634	124.493572337263	1232.977713260394	884.258733589202	148.920293658133	960.863703634025	1103.048907245940	726.096566180064	1112.788580134763	892.129982273229	710.809210375151	
